<mxfile host="app.diagrams.net" modified="2021-10-04T06:10:44.067Z" agent="5.0 (Windows NT 10.0; Win64; x64) AppleWebKit/537.36 (KHTML, like Gecko) Chrome/94.0.4606.61 Safari/537.36" etag="EiwCeI9RlMJAnBGRFPts" version="15.4.1" type="github">
  <diagram id="JsTRmYVsoqwD7YUV9fIb" name="Page-1">
    <mxGraphModel dx="1422" dy="743" grid="1" gridSize="10" guides="1" tooltips="1" connect="1" arrows="1" fold="1" page="1" pageScale="1" pageWidth="827" pageHeight="1169" math="0" shadow="0">
      <root>
        <mxCell id="0" />
        <mxCell id="1" parent="0" />
        <mxCell id="A3QNGeQAsIVfZcVgWZHT-2" value="main" style="rounded=0;whiteSpace=wrap;html=1;align=left;" vertex="1" parent="1">
          <mxGeometry x="130" y="280" width="560" height="40" as="geometry" />
        </mxCell>
      </root>
    </mxGraphModel>
  </diagram>
</mxfile>
